# xmcd
#
# Track frame offsets: 
#        150
#        20862
#        36697
#        54426
#        83218
#        99067
#        122174
#        152328
#        183443
#        218362
#        254253
#        273959
#        289440
#        293237
#
# Disc length: 3925 seconds
#
# Revision: 0
# Processed by: cddbd v1.5.2PL0 Copyright (c) Steve Scherf et al.
# Submitted via: ExactAudioCopyFreeDBPlugin 1.0
#
DISCID=c70f530e
DTITLE=Artisti vari - Dome: Twenty Years Disc 3
DYEAR=2012
DGENRE=R&B
TTITLE0=Khari Cabral Simmons -  Sabrina Malheiros - Major Bossa
TTITLE1=Anthony David - Location Location Location
TTITLE2=Heston - She Lives In Me
TTITLE3=Avery Sunshine - He Keeps On Doing Great Things For Me
TTITLE4=Rahsaan Patterson - 6 A.M. [Steve ?Silk? Hurley Old Skool 330 
TTITLE4=Mix]
TTITLE5=Angela Johnson - You?re Here With Me [Masheen Remix]
TTITLE6=Down to the Bone - Watch Me Fly [Earth Sold Remix]
TTITLE7=Incognito - Freedom To Love [Reel People Rework]
TTITLE8=Tortured Soul - Home To You [Ethan White Remix]
TTITLE9=Avery Sunshine - Ugly Part Of Me [Mike Dunn’s BlackBall Soul M
TTITLE9=ixx]
TTITLE10=Eric Roberson - Just A Dream [Live][Live UK Radio Session]
TTITLE11=Anthony David - Spittin’ Game [Live][Live UK Radio Session]
TTITLE12=Cooly's Hot Box - It’s Alright
TTITLE13=Bobby Womack -  Lulu - I’m Back For More
EXTD=
EXTT0=
EXTT1=
EXTT2=
EXTT3=
EXTT4=
EXTT5=
EXTT6=
EXTT7=
EXTT8=
EXTT9=
EXTT10=
EXTT11=
EXTT12=
EXTT13=
PLAYORDER=
